# Ashen Ossuary hero-style one-handed sword.
# Units: centimeters. Pivot/origin is at grip center for socket attachment.
# Forward blade direction: +X. Intended Unreal import scale: 1.0.

mtllib SM_AO_OssuaryBlade.mtl
o SM_AO_OssuaryBlade

# Main blade: long, tapering diamond silhouette.
v -8.000 0.000 1.400
v 32.000 0.000 1.250
v 76.000 0.000 0.900
v 112.000 0.000 0.450
v 126.000 0.000 0.000
v -8.000 7.200 0.000
v 32.000 6.200 0.000
v 76.000 4.300 0.000
v 112.000 1.900 0.000
v -8.000 0.000 -1.400
v 32.000 0.000 -1.250
v 76.000 0.000 -0.900
v 112.000 0.000 -0.450
v -8.000 -7.200 0.000
v 32.000 -6.200 0.000
v 76.000 -4.300 0.000
v 112.000 -1.900 0.000

# Bright cutting edges as raised strips.
v -2.000 6.950 0.080
v 78.000 4.050 0.080
v 118.000 1.450 0.060
v -2.000 -6.950 0.080
v 78.000 -4.050 0.080
v 118.000 -1.450 0.060
v -2.000 6.950 -0.080
v 78.000 4.050 -0.080
v 118.000 1.450 -0.060
v -2.000 -6.950 -0.080
v 78.000 -4.050 -0.080
v 118.000 -1.450 -0.060

# Dark central fuller with broken ember slit.
v 4.000 0.000 1.520
v 62.000 0.000 1.220
v 96.000 0.000 0.760
v 4.000 1.250 1.270
v 62.000 0.950 1.010
v 96.000 0.500 0.620
v 4.000 -1.250 1.270
v 62.000 -0.950 1.010
v 96.000 -0.500 0.620
v 4.000 0.000 -1.520
v 62.000 0.000 -1.220
v 96.000 0.000 -0.760
v 4.000 1.250 -1.270
v 62.000 0.950 -1.010
v 96.000 0.500 -0.620
v 4.000 -1.250 -1.270
v 62.000 -0.950 -1.010
v 96.000 -0.500 -0.620
v 36.000 0.000 1.610
v 44.000 0.000 1.560
v 40.000 0.520 1.380
v 40.000 -0.520 1.380
v 36.000 0.000 -1.610
v 44.000 0.000 -1.560
v 40.000 0.520 -1.380
v 40.000 -0.520 -1.380

# Jagged side chips along the blade.
v 52.000 5.300 0.000
v 61.000 3.700 0.000
v 58.000 2.500 0.000
v 88.000 -3.900 0.000
v 98.000 -2.050 0.000
v 92.000 -1.400 0.000

# Cracked crossguard with bone prongs.
v -17.000 -27.000 2.400
v -6.000 -24.000 0.000
v -17.000 -27.000 -2.400
v -18.000 -8.000 3.000
v -5.000 -7.000 0.000
v -18.000 -8.000 -3.000
v -18.000 8.000 3.000
v -5.000 7.000 0.000
v -18.000 8.000 -3.000
v -17.000 27.000 2.400
v -6.000 24.000 0.000
v -17.000 27.000 -2.400
v -22.000 -31.000 0.000
v -22.000 31.000 0.000
v -10.000 -18.000 4.200
v -10.000 18.000 4.200
v -10.000 -18.000 -4.200
v -10.000 18.000 -4.200

# Grip and wrap.
v -43.000 -3.600 3.600
v -16.000 -3.600 3.600
v -43.000 3.600 3.600
v -16.000 3.600 3.600
v -43.000 -3.600 -3.600
v -16.000 -3.600 -3.600
v -43.000 3.600 -3.600
v -16.000 3.600 -3.600
v -39.000 -4.300 4.300
v -35.000 -4.300 4.300
v -39.000 4.300 4.300
v -35.000 4.300 4.300
v -39.000 -4.300 -4.300
v -35.000 -4.300 -4.300
v -39.000 4.300 -4.300
v -35.000 4.300 -4.300
v -27.000 -4.300 4.300
v -23.000 -4.300 4.300
v -27.000 4.300 4.300
v -23.000 4.300 4.300
v -27.000 -4.300 -4.300
v -23.000 -4.300 -4.300
v -27.000 4.300 -4.300
v -23.000 4.300 -4.300

# Ossuary pommel: bone diamond with iron collar.
v -55.000 0.000 0.000
v -47.000 0.000 7.200
v -47.000 7.200 0.000
v -47.000 0.000 -7.200
v -47.000 -7.200 0.000
v -39.000 0.000 5.200
v -39.000 5.200 0.000
v -39.000 0.000 -5.200
v -39.000 -5.200 0.000
v -38.000 -5.800 5.800
v -33.000 -5.800 5.800
v -38.000 5.800 5.800
v -33.000 5.800 5.800
v -38.000 -5.800 -5.800
v -33.000 -5.800 -5.800
v -38.000 5.800 -5.800
v -33.000 5.800 -5.800

usemtl AO_BlackenedSteel
s 1
f 1 6 7 2
f 2 7 8 3
f 3 8 9 4
f 4 9 5
f 1 2 15 14
f 2 3 16 15
f 3 4 17 16
f 4 5 17
f 10 11 7 6
f 11 12 8 7
f 12 13 9 8
f 13 5 9
f 10 14 15 11
f 11 15 16 12
f 12 16 17 13
f 13 17 5
f 1 14 10
f 1 10 6

usemtl AO_BrightWornEdge
s 1
f 18 19 25 24
f 19 20 26 25
f 21 27 28 22
f 22 28 29 23
f 18 21 22 19
f 19 22 23 20
f 24 25 28 27
f 25 26 29 28

usemtl AO_BlackenedSteel
s 1
f 30 33 34 31
f 31 34 35 32
f 30 31 37 36
f 31 32 38 37
f 39 40 43 42
f 40 41 44 43
f 39 45 46 40
f 40 46 47 41
f 56 57 58
f 59 60 61

usemtl AO_DimEmber
s 1
f 48 50 49
f 48 49 51
f 52 53 54
f 52 55 53

usemtl AO_BlackenedSteel
s 1
f 62 65 66 63
f 63 66 67 64
f 65 68 69 66
f 66 69 70 67
f 68 71 72 69
f 69 72 73 70
f 62 63 66 65
f 65 66 69 68
f 68 69 72 71
f 64 67 66 63
f 67 70 69 66
f 70 73 72 69

usemtl AO_AshBoneCarving
s 1
f 62 74 63
f 72 75 73
f 65 76 68
f 69 77 66
f 67 78 70
f 71 79 68

usemtl AO_DeadLeather
s 1
f 80 81 83 82
f 84 86 87 85
f 80 84 85 81
f 82 83 87 86
f 80 82 86 84
f 81 85 87 83

usemtl AO_BlackenedSteel
s 1
f 88 89 91 90
f 92 94 95 93
f 88 92 93 89
f 90 91 95 94
f 88 90 94 92
f 89 93 95 91
f 96 97 99 98
f 100 102 103 101
f 96 100 101 97
f 98 99 103 102
f 96 98 102 100
f 97 101 103 99

usemtl AO_AshBoneCarving
s 1
f 104 105 106
f 104 106 107
f 104 107 108
f 104 108 105
f 105 109 110 106
f 106 110 111 107
f 107 111 112 108
f 108 112 109 105
f 109 112 111 110

usemtl AO_BlackenedSteel
s 1
f 113 114 116 115
f 117 119 120 118
f 113 117 118 114
f 115 116 120 119
f 113 115 119 117
f 114 118 120 116
